<svg xmlns="http://www.w3.org/2000/svg" width="33" height="20" fill="none"><path fill="#FF7010" d="M32.48 4.421C32.45 1.978 30.459 0 28.015 0c-2.182 0-4.003 1.58-4.39 3.658-.767.341-2.1.886-2.894 1.018-.957.16-2.114.208-3.44.143-2.53-.125-5.056-.952-7.305-2.392C7.155.616 4.745.192 2.17 1.053A2.461 2.461 0 0 0 .5 3.399c0 .347.188.666.49.832.344.189.667.353.979.51 1.69.857 2.621 1.329 3.238 3.929.461 1.94 1.268 3.568 2.397 4.835a8.956 8.956 0 0 0 1.613 1.422h12.83c1.938-1.46 3.125-3.676 3.451-6.469a14.55 14.55 0 0 0-.084-3.859.936.936 0 0 0 .009-.118 2.593 2.593 0 0 1 5.183 0c0 .045.003.09.01.135 0 .01.104.948-.474 1.622-.474.552-1.31.832-2.488.832a.942.942 0 0 0-.937.946c0 .523.42.947.937.947 1.746 0 3.06-.5 3.905-1.486 1.038-1.209.961-2.678.922-3.056ZM9.222 16.82c-.053.203-.08.417-.08.637v1.596c0 .523.42.947.937.947h11.165a.942.942 0 0 0 .938-.947v-1.596c0-.22-.028-.434-.08-.638H9.222Z"/></svg>