<svg xmlns="http://www.w3.org/2000/svg" width="16" height="16" fill="none"><g clip-path="url(#a)"><path fill="#FF7010" d="M8 0C3.589 0 0 3.589 0 8s3.589 8 8 8 8-3.589 8-8-3.589-8-8-8Zm0 15.448C3.892 15.448.552 12.108.552 8 .552 3.892 3.892.552 8 .552c4.108 0 7.448 3.34 7.448 7.448 0 4.108-3.34 7.448-7.448 7.448Zm4.444-10.347a.275.275 0 0 1 0 .389l-5.02 5.02a.273.273 0 0 1-.196.08.285.285 0 0 1-.196-.08L4.328 7.807a.275.275 0 1 1 .39-.39l2.507 2.509L12.05 5.1a.281.281 0 0 1 .394 0Z"/></g><defs><clipPath id="a"><path fill="#fff" d="M0 0h16v16H0z"/></clipPath></defs></svg>